<svg width="31" height="35" viewBox="0 0 31 35" fill="none" xmlns="http://www.w3.org/2000/svg">
<path d="M4.36026 25.0006C6.44367 29.9373 10.2827 35 15.1092 35C19.9327 35 23.7691 29.9446 25.8525 25.0099C27.5031 24.6684 29.0718 22.9752 29.804 20.6614C30.7103 17.7926 30.0829 14.9895 28.4065 13.8586C28.4125 13.5454 28.3148 13.1246 27.8577 13.0391C26.9751 5.63028 21.5882 0 15.1092 0C8.62918 0 3.24134 5.63028 2.35998 13.0391C1.98286 13.0391 1.69032 13.5073 1.80995 13.8628C1.04459 14.3855 0.460601 15.2644 0.185705 16.4068C-0.125079 17.7022 -0.0437573 19.2131 0.414443 20.6615C1.13908 22.9543 2.68502 24.6372 4.36026 25.0006ZM27.9767 19.9596C27.3634 21.8965 26.1104 22.941 25.2195 22.941C24.8026 22.9523 24.4702 23.1856 24.3142 23.5814C22.5377 28.0703 19.1863 32.8675 15.1092 32.8675C11.032 32.8675 7.67955 28.0703 5.90221 23.5803C5.74839 23.1917 5.35895 22.941 4.97349 22.941C4.10603 22.941 2.85322 21.8965 2.24181 19.9596C1.91399 18.9236 1.84608 17.8282 2.05657 16.9524C2.15867 16.5254 2.42233 15.7725 3.03556 15.5383C3.09876 15.5133 3.20461 15.5008 3.29813 15.4904C3.51648 15.4675 3.7074 15.3581 3.85759 15.203C4.87139 15.8954 5.58394 16.9701 5.83141 17.3855V19.6538C5.83141 20.0953 6.55124 20.8687 6.95193 20.8687H12.3863C12.787 20.8687 14.2163 18.433 14.2163 17.9916C14.7872 17.7593 15.4287 17.7593 16.0004 17.9916C16.0004 18.433 17.4828 20.8687 17.8833 20.8687H23.2646C23.6652 20.8687 24.3851 20.0953 24.3851 19.6538V17.3855C24.6327 16.9701 25.3452 15.8954 26.359 15.203C26.5094 15.3581 26.7001 15.4675 26.9184 15.4904C27.0118 15.5008 27.1177 15.5133 27.1821 15.5383C28.1061 15.8933 28.6597 17.7958 27.9767 19.9596ZM12.7648 17.0678V17.9916L11.7671 19.4573H7.83635L7.63981 19.1625L7.28262 18.6712V17.119C7.28165 17.0991 7.28552 17.0803 7.28262 17.0596V16.29H12.7648V17.0678ZM17.4515 17.0669V16.2901H22.9337V17.0597C22.931 17.0805 22.9347 17.0992 22.9337 17.1191V18.6712L22.5767 19.1625L22.3802 19.4573H18.4494L17.4515 17.9916V17.0669ZM15.1092 2.13261C20.6963 2.13261 25.328 7.11426 25.9734 13.6192C25.2903 14.0139 24.7017 14.5272 24.2444 15.0425C24.114 14.8353 23.906 14.6906 23.6593 14.6906H16.7259C16.3253 14.6906 16.0003 15.0488 16.0003 15.4902V16.343C15.4135 16.2004 14.8032 16.2013 14.2162 16.3441V15.4902C14.2162 15.0488 13.8912 14.6906 13.4906 14.6906H6.55701C6.31051 14.6906 6.10268 14.8353 5.97218 15.0425C5.51494 14.5271 4.92624 14.0137 4.24293 13.6192C4.8883 7.11412 9.52214 2.13261 15.1092 2.13261Z" fill="#0077D9"/>
</svg>
