<svg width="24" height="24" viewBox="0 0 24 24" fill="none" xmlns="http://www.w3.org/2000/svg">
<path d="M2.63925 15.9832C2.36815 15.6418 1.94973 15.4225 1.4799 15.4225C0.662554 15.4225 0 16.0851 0 16.9024C0 17.7197 0.662615 18.3823 1.4799 18.3823C1.94973 18.3823 2.36815 18.163 2.63925 17.8216H4.64137V15.9832H2.63925Z" fill="black"/>
<path d="M2.63925 11.0809C2.36815 10.7394 1.94973 10.5202 1.4799 10.5202C0.662554 10.5202 0 11.1828 0 12C0 12.8173 0.662615 13.4799 1.4799 13.4799C1.94973 13.4799 2.36815 13.2606 2.63925 12.9192H4.64137V11.0808H2.63925V11.0809Z" fill="black"/>
<path d="M2.63925 6.17851C2.36815 5.83706 1.94973 5.6178 1.4799 5.6178C0.662554 5.6178 0 6.28041 0 7.0977C0 7.91498 0.662615 8.5776 1.4799 8.5776C1.94973 8.5776 2.36815 8.35834 2.63925 8.01689H4.64137V6.17851H2.63925V6.17851Z" fill="black"/>
<path d="M21.3608 17.8216C21.6319 18.163 22.0503 18.3823 22.5201 18.3823C23.3374 18.3823 24 17.7197 24 16.9024C24 16.0851 23.3374 15.4225 22.5201 15.4225C22.0503 15.4225 21.6319 15.6418 21.3608 15.9832H19.3586V17.8216H21.3608Z" fill="black"/>
<path d="M21.3608 12.9192C21.6319 13.2606 22.0503 13.4799 22.5201 13.4799C23.3374 13.4799 24 12.8173 24 12C24 11.1828 23.3374 10.5202 22.5201 10.5202C22.0503 10.5202 21.6319 10.7394 21.3608 11.0809H19.3586V12.9193H21.3608V12.9192Z" fill="black"/>
<path d="M21.3608 8.01689C21.6319 8.35834 22.0503 8.5776 22.5201 8.5776C23.3374 8.5776 24 7.91498 24 7.0977C24 6.28041 23.3374 5.6178 22.5201 5.6178C22.0503 5.6178 21.6319 5.83706 21.3608 6.17851H19.3586V8.01689H21.3608Z" fill="black"/>
<path d="M16.8284 2.14098H7.1716C6.66396 2.14098 6.25241 2.55254 6.25241 3.06018V20.9399C6.25241 21.4476 6.66396 21.8591 7.1716 21.8591H16.8285C17.3361 21.8591 17.7476 21.4476 17.7476 20.9399V3.06018C17.7476 2.55254 17.3361 2.14098 16.8284 2.14098ZM15.2478 5.2519C14.8586 5.2519 14.5431 4.93643 14.5431 4.54718C14.5431 4.15794 14.8586 3.84247 15.2478 3.84247C15.6371 3.84247 15.9525 4.15794 15.9525 4.54718C15.9525 4.93643 15.6371 5.2519 15.2478 5.2519Z" fill="black"/>
</svg>
