<svg width="154" height="179" viewBox="0 0 154 179" fill="none" xmlns="http://www.w3.org/2000/svg">
<path d="M22.3134 127.205C32.914 152.323 52.447 178.082 77.0049 178.082C101.547 178.082 121.067 152.36 131.668 127.252C140.066 125.514 148.047 116.899 151.773 105.126C156.384 90.53 153.192 76.2677 144.662 70.5133C144.693 68.9197 144.195 66.7787 141.87 66.3437C137.379 28.6472 109.97 0 77.0049 0C44.034 0 16.6203 28.6472 12.1359 66.3437C10.2171 66.3437 8.72865 68.726 9.33731 70.535C5.44311 73.1944 2.47174 77.6661 1.07305 83.4788C-0.508235 90.0699 -0.094466 97.7573 2.23689 105.127C5.92389 116.793 13.7897 125.356 22.3134 127.205ZM142.475 101.556C139.355 111.411 132.98 116.725 128.447 116.725C126.325 116.783 124.634 117.97 123.84 119.983C114.801 142.823 97.7492 167.232 77.0049 167.232C56.2595 167.232 39.2022 142.823 30.159 119.978C29.3764 118.001 27.3948 116.725 25.4336 116.725C21.0199 116.725 14.6456 111.411 11.5346 101.556C9.86665 96.2844 9.52113 90.7109 10.5921 86.2547C11.1116 84.0825 12.4531 80.2516 15.5733 79.0598C15.8948 78.9325 16.4334 78.8688 16.9093 78.8159C18.0202 78.6994 18.9916 78.1431 19.7558 77.3538C24.9141 80.877 28.5396 86.3448 29.7987 88.4587V100C29.7987 102.246 33.4613 106.181 35.5 106.181H63.1506C65.1893 106.181 72.4615 93.7883 72.4615 91.5422C75.3665 90.3606 78.6305 90.3606 81.5391 91.5422C81.5391 93.7883 89.0816 106.181 91.1197 106.181H118.5C120.538 106.181 124.201 102.246 124.201 100V88.4587C125.461 86.3448 129.086 80.877 134.244 77.3538C135.01 78.1431 135.98 78.6994 137.091 78.8159C137.566 78.8688 138.105 78.9325 138.432 79.0598C143.134 80.8662 145.951 90.5462 142.475 101.556ZM65.0764 86.8421V91.5422L60 99H40L39 97.5L37.1826 95V87.1023C37.1777 87.0013 37.1973 86.9058 37.1826 86.8001V82.8846H65.0764V86.8421ZM88.9224 86.8374V82.8853H116.816V86.8008C116.803 86.9065 116.821 87.002 116.816 87.103V95L115 97.5L114 99H94L88.9224 91.5422V86.8374ZM77.0049 10.8509C105.432 10.8509 128.999 36.1978 132.282 69.2951C128.807 71.3033 125.812 73.9153 123.485 76.5374C122.822 75.4831 121.764 74.7466 120.508 74.7466H85.2304C83.1924 74.7466 81.5385 76.5692 81.5385 78.8153V83.1542C78.553 82.4286 75.4476 82.4333 72.4609 83.1597V78.8153C72.4609 76.5692 70.8077 74.7466 68.769 74.7466H33.4907C32.2364 74.7466 31.179 75.4831 30.515 76.5374C28.1886 73.9146 25.1932 71.3027 21.7165 69.2951C25.0002 36.1971 48.5774 10.8509 77.0049 10.8509Z" fill="#BBBB00"/>
</svg>
