<svg width="24" height="24" viewBox="0 0 24 24" fill="none" xmlns="http://www.w3.org/2000/svg">
<g clip-path="url(#clip0_3_44)">
<path d="M21.4286 13.0714C20.1569 13.0714 19.1009 14.0001 18.8958 15.2143H17.1429C15.7249 15.2143 14.5714 16.3671 14.5714 17.7842V22.5H15.4286V17.7842C15.4286 16.8399 16.1976 16.0714 17.1429 16.0714H18.8958C19.1008 17.2856 20.1569 18.2143 21.4286 18.2143C22.8465 18.2143 24 17.0608 24 15.6429C24 14.2249 22.8465 13.0714 21.4286 13.0714ZM21.4286 17.3571C20.4834 17.3571 19.7143 16.5881 19.7143 15.6429C19.7143 14.6976 20.4834 13.9286 21.4286 13.9286C22.3738 13.9286 23.1429 14.6976 23.1429 15.6429C23.1429 16.5881 22.3738 17.3571 21.4286 17.3571Z" fill="black"/>
<path d="M9.85714 6.64286H8.14286C8.14286 5.22493 6.98936 4.07143 5.57143 4.07143C4.1535 4.07143 3 5.22493 3 6.64286C3 8.06079 4.1535 9.21429 5.57143 9.21429C6.6885 9.21429 7.63875 8.49718 7.99286 7.5H9.85714C10.8024 7.5 11.5714 8.27014 11.5714 9.21686V22.5H12.4286V9.21686C12.4286 7.79754 11.2751 6.64286 9.85714 6.64286ZM5.57143 8.35714C4.62621 8.35714 3.85714 7.58807 3.85714 6.64286C3.85714 5.69764 4.62621 4.92857 5.57143 4.92857C6.51664 4.92857 7.28571 5.69764 7.28571 6.64286C7.28571 7.58807 6.51664 8.35714 5.57143 8.35714Z" fill="black"/>
<path d="M6.85714 13.0714H5.10418C4.89911 11.8573 3.84311 10.9286 2.57143 10.9286C1.1535 10.9286 0 12.0821 0 13.5C0 14.9179 1.1535 16.0714 2.57143 16.0714C3.84311 16.0714 4.89911 15.1427 5.10418 13.9286H6.85714C7.80236 13.9286 8.57143 14.6983 8.57143 15.6444V22.5H9.42857V15.6444C9.42857 14.2258 8.27507 13.0714 6.85714 13.0714ZM2.57143 15.2143C1.62621 15.2143 0.857143 14.4452 0.857143 13.5C0.857143 12.5548 1.62621 11.7857 2.57143 11.7857C3.51664 11.7857 4.28571 12.5548 4.28571 13.5C4.28571 14.4452 3.51664 15.2143 2.57143 15.2143Z" fill="black"/>
<path d="M17.5137 10.0714H18.8958C19.1008 11.2856 20.1569 12.2143 21.4286 12.2143C22.8465 12.2143 24 11.0608 24 9.64285C24 8.22492 22.8465 7.07143 21.4286 7.07143C20.1569 7.07143 19.1009 8.00014 18.8958 9.21428H17.5137C16.839 9.21428 16.2901 8.66517 16.2901 7.99007V1.5H15.433V7.99007C15.433 9.13767 16.3663 10.0714 17.5137 10.0714ZM21.4286 7.92857C22.3738 7.92857 23.1429 8.69764 23.1429 9.64285C23.1429 10.5881 22.3738 11.3571 21.4286 11.3571C20.4834 11.3571 19.7143 10.5881 19.7143 9.64285C19.7143 8.69764 20.4834 7.92857 21.4286 7.92857Z" fill="black"/>
</g>
<defs>
<clipPath id="clip0_3_44">
<rect width="24" height="24" fill="white"/>
</clipPath>
</defs>
</svg>
